<svg width="960" height="620" viewBox="0 0 960 620" fill="none" xmlns="http://www.w3.org/2000/svg">
  <rect width="960" height="620" rx="28" fill="#EAF7F2"/>
  <rect x="168" y="104" width="624" height="396" rx="32" fill="#FFFFFF" stroke="#BDE9FB" stroke-width="8"/>
  <rect x="214" y="154" width="532" height="300" rx="24" fill="#101517"/>
  <rect x="244" y="184" width="472" height="240" rx="12" fill="#F8FBF9"/>
  <rect x="284" y="224" width="154" height="84" rx="12" fill="#12847B"/>
  <path d="M312 281L349 238L389 282L415 253" stroke="white" stroke-width="14" stroke-linecap="round" stroke-linejoin="round"/>
  <rect x="470" y="224" width="194" height="24" rx="12" fill="#E8EEF1"/>
  <rect x="470" y="266" width="88" height="88" rx="14" fill="#FFD978"/>
  <rect x="576" y="266" width="88" height="88" rx="14" fill="#3D6EE8"/>
  <path d="M620 288V332M598 310H642" stroke="white" stroke-width="12" stroke-linecap="round"/>
  <path d="M514 288V332M492 310H536" stroke="#101517" stroke-width="12" stroke-linecap="round"/>
  <rect x="284" y="334" width="250" height="20" rx="10" fill="#E8EEF1"/>
  <rect x="284" y="372" width="184" height="20" rx="10" fill="#E8EEF1"/>
  <path d="M104 182V248M71 215H137" stroke="#F15A3B" stroke-width="18" stroke-linecap="round"/>
  <path d="M842 168H902M842 214H902" stroke="#3165E9" stroke-width="18" stroke-linecap="round"/>
  <circle cx="116" cy="410" r="48" fill="#F4AA00"/>
  <path d="M92 410H140" stroke="#101517" stroke-width="14" stroke-linecap="round"/>
  <circle cx="842" cy="410" r="56" fill="#1AAA4C"/>
  <path d="M842 380V440M812 410H872" stroke="#FFFFFF" stroke-width="16" stroke-linecap="round"/>
</svg>
