<svg xmlns="http://www.w3.org/2000/svg" width="960" height="640" viewBox="0 0 960 640" role="img" aria-labelledby="title desc">
  <title id="title">Aula digital de matematicas</title>
  <desc id="desc">Una tableta con graficas, ejercicios y simbolos matematicos para representar el tutor inteligente.</desc>
  <rect width="960" height="640" fill="#eef7f2"/>
  <path d="M0 448c128-72 248-88 360-48 112 40 205 40 280 0 96-51 201-48 320 8v232H0z" fill="#d8f0e5"/>
  <rect x="188" y="98" width="584" height="394" rx="34" fill="#17202a"/>
  <rect x="218" y="126" width="524" height="338" rx="20" fill="#f8fafc"/>
  <rect x="248" y="156" width="204" height="132" rx="14" fill="#0f766e"/>
  <rect x="478" y="156" width="232" height="42" rx="12" fill="#e9eef6"/>
  <rect x="478" y="218" width="108" height="108" rx="14" fill="#f7d488"/>
  <rect x="602" y="218" width="108" height="108" rx="14" fill="#b9d7ff"/>
  <rect x="248" y="316" width="462" height="28" rx="14" fill="#e9eef6"/>
  <rect x="248" y="360" width="330" height="28" rx="14" fill="#e9eef6"/>
  <rect x="248" y="404" width="230" height="28" rx="14" fill="#e9eef6"/>
  <path d="M286 236l34-48 44 72 36-54 26 30" fill="none" stroke="#fff" stroke-width="16" stroke-linecap="round" stroke-linejoin="round"/>
  <circle cx="658" cy="272" r="34" fill="#2563eb"/>
  <path d="M642 272h32M658 256v32" stroke="#fff" stroke-width="10" stroke-linecap="round"/>
  <path d="M522 272h26M535 259v26" stroke="#17202a" stroke-width="9" stroke-linecap="round"/>
  <path d="M74 168h70M109 133v70" stroke="#e85d3f" stroke-width="18" stroke-linecap="round"/>
  <path d="M810 144h78M810 190h78" stroke="#2563eb" stroke-width="17" stroke-linecap="round"/>
  <circle cx="128" cy="460" r="52" fill="#f59e0b"/>
  <path d="M108 460h40" stroke="#17202a" stroke-width="12" stroke-linecap="round"/>
  <circle cx="822" cy="470" r="58" fill="#16a34a"/>
  <path d="M794 470h56M822 442v56" stroke="#fff" stroke-width="13" stroke-linecap="round"/>
  <path d="M94 282c0-38 56-38 56 0 0 32-40 31-40 58" fill="none" stroke="#0f766e" stroke-width="16" stroke-linecap="round"/>
  <circle cx="110" cy="382" r="10" fill="#0f766e"/>
</svg>
